<svg xmlns="http://www.w3.org/2000/svg" xmlns:xlink="http://www.w3.org/1999/xlink" version="1.1" id="Layer_1" x="0px" y="0px" viewBox="0 0 512.001 512.001" style="enable-background:new 0 0 512.001 512.001;" xml:space="preserve">
<path style="fill: #375dab;" d="M142.273,231.541c-3.356-1.383-7.213-0.604-9.77,1.973L15.867,351.072  c-1.665,1.677-2.599,3.946-2.599,6.308v145.662c0,4.948,4.009,8.957,8.957,8.957h116.636c4.948,0,8.957-4.009,8.957-8.957V239.823  C147.819,236.194,145.629,232.923,142.273,231.541z"/>
<path style="fill: #35508d;" d="M142.273,231.541c-3.356-1.383-7.213-0.604-9.77,1.973l-30.664,30.907V512h37.023  c4.948,0,8.957-4.009,8.957-8.957V239.823C147.819,236.194,145.629,232.923,142.273,231.541z"/>
<path style="fill: #8ec5ef;" d="M440.689,9.112c0-0.074-0.01-0.146-0.012-0.219c-0.005-0.159-0.013-0.316-0.026-0.475  c-0.012-0.142-0.026-0.283-0.045-0.423c-0.019-0.145-0.042-0.287-0.068-0.43c-0.026-0.148-0.056-0.294-0.09-0.439  c-0.032-0.136-0.068-0.27-0.106-0.405c-0.041-0.145-0.084-0.287-0.131-0.428c-0.045-0.136-0.097-0.27-0.149-0.404  c-0.053-0.133-0.105-0.263-0.164-0.393c-0.062-0.139-0.13-0.276-0.199-0.412c-0.061-0.118-0.122-0.235-0.188-0.35  c-0.079-0.139-0.164-0.275-0.25-0.41c-0.07-0.109-0.141-0.215-0.215-0.32c-0.092-0.13-0.188-0.257-0.287-0.382  c-0.085-0.107-0.172-0.213-0.262-0.315c-0.098-0.112-0.197-0.223-0.302-0.332c-0.106-0.111-0.216-0.217-0.327-0.322  c-0.062-0.059-0.118-0.122-0.182-0.179c-0.041-0.036-0.085-0.066-0.127-0.102c-0.119-0.103-0.244-0.199-0.368-0.296  c-0.111-0.086-0.222-0.172-0.337-0.252c-0.119-0.084-0.244-0.16-0.368-0.239c-0.125-0.079-0.251-0.159-0.38-0.232  c-0.118-0.067-0.24-0.125-0.362-0.186c-0.14-0.07-0.278-0.142-0.422-0.204c-0.118-0.051-0.241-0.096-0.362-0.143  c-0.149-0.057-0.299-0.117-0.451-0.167c-0.122-0.039-0.247-0.072-0.371-0.106c-0.156-0.043-0.313-0.088-0.471-0.123  c-0.123-0.027-0.248-0.047-0.373-0.068c-0.165-0.029-0.33-0.059-0.496-0.079c-0.121-0.014-0.242-0.021-0.363-0.031  c-0.174-0.013-0.349-0.026-0.523-0.03c-0.041-0.001-0.081-0.007-0.123-0.007L398.221,0c-0.02,0-0.038,0-0.059,0  c-4.92,0-8.925,3.973-8.956,8.9c-0.031,4.948,3.954,8.983,8.9,9.014l13.788,0.087L254.835,194.672L144.91,94.039  c-3.547-3.245-9.023-3.114-12.407,0.299L15.866,211.897c-3.484,3.511-3.462,9.183,0.05,12.667c1.747,1.733,4.027,2.599,6.308,2.599  c2.304,0,4.608-0.884,6.358-2.649l110.577-111.451l110.283,100.96c1.769,1.618,4.107,2.461,6.509,2.338  c2.395-0.124,4.641-1.203,6.234-2.994L422.923,32.561l0.064,10.233c0.031,4.928,4.035,8.9,8.956,8.9c0.019,0,0.038,0,0.059,0  c4.947-0.031,8.931-4.067,8.9-9.014L440.689,9.112z"/>
<path style="fill: #4276b8;" d="M261.54,339.985L144.911,233.217c-2.937-2.687-7.338-3.149-10.813-0.98  c-2.686,1.676-4.192,4.737-4.192,7.903V512h125.586c4.947,0,8.957-4.01,8.957-8.957V346.591  C264.448,344.077,263.392,341.682,261.54,339.985z"/>
<path style="fill: #35537d;" d="M227.085,308.443V512h28.406c4.947,0,8.957-4.01,8.957-8.957V346.591c0-2.514-1.056-4.91-2.909-6.607  L227.085,308.443z"/>
<path style="fill: #4d90c5;" d="M375.304,206.824c-3.48-1.32-7.409-0.355-9.879,2.428L255.024,333.626v178.35  c0.156,0.008,0.311,0.024,0.468,0.024h116.632c4.948,0,8.957-4.009,8.957-8.957V215.197  C381.08,211.477,378.782,208.145,375.304,206.824z"/>
<path style="fill: #43678a;" d="M375.304,206.824c-3.48-1.32-7.409-0.355-9.879,2.428l-30.324,34.161V512h37.023  c4.948,0,8.957-4.009,8.957-8.957V215.197C381.08,211.477,378.782,208.145,375.304,206.824z"/>
<path style="fill: #58aad3;" d="M491.724,73.91c-3.258-0.736-6.649,0.547-8.866,3.045L365.424,209.252  c-1.455,1.639-2.258,3.755-2.258,5.946v296.803h126.611c4.947,0,8.957-4.01,8.957-8.957V82.655  C498.734,78.51,495.882,74.848,491.724,73.91z"/>
<path style="fill: #7fc6f3;" d="M470.668,512h19.109c4.947,0,8.957-4.01,8.957-8.957V82.654c0-4.144-2.852-7.807-7.009-8.745  c-3.259-0.736-6.649,0.547-8.866,3.045l-12.19,13.733V512z"/>
<g>
</g>
<g>
</g>
<g>
</g>
<g>
</g>
<g>
</g>
<g>
</g>
<g>
</g>
<g>
</g>
<g>
</g>
<g>
</g>
<g>
</g>
<g>
</g>
<g>
</g>
<g>
</g>
<g>
</g>
</svg>